<svg id="Group_26" data-name="Group 26" xmlns="http://www.w3.org/2000/svg" xmlns:xlink="http://www.w3.org/1999/xlink" width="164.827" height="100" viewBox="0 0 164.827 100">
  <defs>
    <clipPath id="clip-path">
      <rect id="Rectangle_25" data-name="Rectangle 25" width="164.827" height="100" fill="#7b252c"/>
    </clipPath>
  </defs>
  <g id="Group_25" data-name="Group 25" clip-path="url(#clip-path)">
    <path id="Path_22" data-name="Path 22" d="M62.44,74.746H27.658L20.582,96.771a1.771,1.771,0,0,1-1.807,1.355H1.159q-1.506,0-1.054-1.656L30.218,10.1c.3-.9.6-1.786.9-2.942a32.165,32.165,0,0,0,.6-6.1A.932.932,0,0,1,32.778.008H56.718q1.051,0,1.2.753L92.1,96.62q.452,1.507-.9,1.506H71.624a1.391,1.391,0,0,1-1.505-1.054ZM44.973,17.178h-.151l-11.744,39H56.868Z" transform="translate(0 0.001)" fill="#7b252c"/>
    <path id="Path_23" data-name="Path 23" d="M271.489,94.943H241.827a21.156,21.156,0,0,0,2.861,8.3,15.5,15.5,0,0,0,6.851,5.646,28.609,28.609,0,0,0,11.97,2.346,54.238,54.238,0,0,0,9.712-1.067,35.805,35.805,0,0,0,8.35-2.177c.5-.4.753-.15.753.753v14.3a2.226,2.226,0,0,1-.226,1.129,2.161,2.161,0,0,1-.678.678,38.314,38.314,0,0,1-9.328,2.779,66.193,66.193,0,0,1-13.249,1.129q-10.693,0-17.918-3.312a31.941,31.941,0,0,1-11.744-8.883,34.78,34.78,0,0,1-6.474-12.271,48.3,48.3,0,0,1-1.957-13.626,47.456,47.456,0,0,1,2.333-14.831,38.746,38.746,0,0,1,7-12.8c6.882-8.34,16.355-11.815,26.951-11.815,9.131,0,18.5,3.024,24.392,10.309A34.237,34.237,0,0,1,287,72.147,37.822,37.822,0,0,1,288.8,83.59q0,3.313-.226,6.022t-.376,3.915a1.365,1.365,0,0,1-1.355,1.205q-.9,0-3.086.225t-5.42.3C276.18,95.31,273.9,94.943,271.489,94.943ZM241.827,81.226h19.724q3.614,0,5.345-.075a5.263,5.263,0,0,0,2.184-.724v-.9a12.035,12.035,0,0,0-.6-3.463,12.3,12.3,0,0,0-12.2-8.582,13.079,13.079,0,0,0-12.422,7.076A21.756,21.756,0,0,0,241.827,81.226Z" transform="translate(-123.978 -28.768)" fill="#7b252c"/>
  </g>
</svg>
