<svg id="Group_22" data-name="Group 22" xmlns="http://www.w3.org/2000/svg" xmlns:xlink="http://www.w3.org/1999/xlink" width="114.27" height="100" viewBox="0 0 114.27 100">
  <defs>
    <clipPath id="clip-path">
      <rect id="Rectangle_23" data-name="Rectangle 23" width="114.27" height="100" fill="#7b252c"/>
    </clipPath>
  </defs>
  <g id="Group_22-2" data-name="Group 22" clip-path="url(#clip-path)">
    <path id="Path_17" data-name="Path 17" d="M57.832,79.434H25.885l-8.248,23.815q-.143,1.178-1.491,1.178h-15q-1.5,0-1.044-1.473L29.045,17a26.341,26.341,0,0,0,1.2-8.087.795.795,0,0,1,.893-.893H52.128c.607,0,.955.25,1.053.732l32.385,94.351c.3.893.054,1.321-.75,1.321H68.026a1.553,1.553,0,0,1-1.5-.893ZM29.455,63.366H54.342c-.6-1.312-11.792-37.428-12.6-40.472H41.6Z" transform="translate(0 -4.438)" fill="#7b252c"/>
    <path id="Path_18" data-name="Path 18" d="M218.612,21.438a10.543,10.543,0,0,1-7.686-2.865,10.31,10.31,0,0,1-2.946-7.766,10.451,10.451,0,0,1,3.026-7.846A10.71,10.71,0,0,1,218.773.015a10.31,10.31,0,0,1,7.766,2.946,10.774,10.774,0,0,1,2.865,7.846,10.31,10.31,0,0,1-2.946,7.766,10.774,10.774,0,0,1-7.846,2.865" transform="translate(-115.148 0)" fill="#7b252c"/>
    <path id="Path_19" data-name="Path 19" d="M211.983,134.089V65.214a1.053,1.053,0,0,1,1.2-1.2h15.46a1.062,1.062,0,0,1,1.2,1.2v69.018a1.053,1.053,0,0,1-1.2,1.2H213.322a1.187,1.187,0,0,1-1.339-1.013,1.171,1.171,0,0,1,0-.326" transform="translate(-117.365 -35.439)" fill="#7b252c"/>
  </g>
</svg>
