<svg xmlns="http://www.w3.org/2000/svg" width="141.493" height="110" viewBox="0 0 141.493 110">
  <g id="_x31_1-DSLR_Camera" transform="translate(0 -34.2)">
    <path id="Path_33" data-name="Path 33" d="M131.181,48.909H93.727L86.164,36.2a4.1,4.1,0,0,0-3.524-2H58.853a4.1,4.1,0,0,0-3.524,2L47.766,48.909H35.476v-2.8a4.1,4.1,0,0,0-4.1-4.1H16.2a4.1,4.1,0,0,0-4.1,4.1v2.8H10.313A10.312,10.312,0,0,0,0,59.221v74.666A10.312,10.312,0,0,0,10.312,144.2H131.181a10.313,10.313,0,0,0,10.313-10.313V59.221A10.312,10.312,0,0,0,131.181,48.909Zm-60.434,77A29.354,29.354,0,1,1,100.1,96.554,29.354,29.354,0,0,1,70.746,125.908Zm54-55.738H111.9a4.1,4.1,0,0,1,0-8.2h12.851a4.1,4.1,0,1,1,0,8.2Z" transform="translate(0 0)" fill="#7b252c"/>
    <circle id="Ellipse_3" data-name="Ellipse 3" cx="20.873" cy="20.873" r="20.873" transform="translate(49.874 75.603)" fill="#7b252c"/>
  </g>
</svg>
