<svg xmlns="http://www.w3.org/2000/svg" xmlns:xlink="http://www.w3.org/1999/xlink" width="145.227" height="140" viewBox="0 0 145.227 140">
  <defs>
    <clipPath id="clip-path">
      <rect id="Rectangle_26" data-name="Rectangle 26" width="145.227" height="140" fill="#7b252c"/>
    </clipPath>
  </defs>
  <g id="Group_28" data-name="Group 28" transform="translate(-5 -5)">
    <g id="Group_27" data-name="Group 27" transform="translate(5 5)" clip-path="url(#clip-path)">
      <path id="Path_24" data-name="Path 24" d="M136.723,28.045c-1.044-1.566-2.089-2.984-3.207-4.4a31.256,31.256,0,0,0-3.655-4.028,38.457,38.457,0,0,0-4.028-3.729c-1.343-1.193-2.834-2.238-4.326-3.357-2.238-1.566-4.55-2.984-6.937-4.326a59.854,59.854,0,0,0-7.384-3.431,58.859,58.859,0,0,0-7.757-2.536A71.851,71.851,0,0,0,91.447.67C90.1.521,88.687.372,87.419.223A36.446,36.446,0,0,0,83.392,0c-1.343,0-2.76,0-4.1.075a38.1,38.1,0,0,0-4.1.373c-1.343.149-2.76.373-4.1.6a38.995,38.995,0,0,0-4.028.9L63.028,3.057a41.887,41.887,0,0,0-3.953,1.417L19.916,20.437c-1.044.448-2.163.97-3.133,1.417a22.88,22.88,0,0,0-2.909,1.716,24.762,24.762,0,0,0-2.685,1.939A21.56,21.56,0,0,0,8.8,27.672a35.019,35.019,0,0,0-3.133,3.506,30.771,30.771,0,0,0-2.461,3.879,22.729,22.729,0,0,0-1.79,4.177C.97,40.65.671,42.142.373,43.559.224,44.305.224,45.051.149,45.8A12.049,12.049,0,0,0,0,48.109c0,.746.075,1.566.149,2.312s.149,1.566.3,2.312S.82,54.226.97,54.972c.224.746.448,1.566.746,2.312a20.225,20.225,0,0,0,.97,2.238L3.8,61.759a18.608,18.608,0,0,0,1.865,2.834,34.12,34.12,0,0,0,2.163,2.685c.746.82,1.566,1.641,2.387,2.461.82.746,1.716,1.492,2.611,2.238a33.208,33.208,0,0,0,4.326,2.834,38.618,38.618,0,0,0,4.7,2.238,39.146,39.146,0,0,0,5,1.641c1.716.448,3.431.746,5.221,1.044.9.149,1.79.149,2.685.224s1.79.075,2.685.075,1.79-.075,2.685-.149,1.79-.149,2.685-.3l2.685-.448a26.68,26.68,0,0,0,2.611-.671,25.226,25.226,0,0,0,2.536-.82c.82-.3,1.641-.671,2.536-1.044l34.61-15.216A11.24,11.24,0,0,0,91.6,58.7a9.819,9.819,0,0,0,2.536-7.907,11.39,11.39,0,0,0-4.848-7.683,15.679,15.679,0,0,0-4.326-2.163,14.728,14.728,0,0,0-4.774-.6A15.23,15.23,0,0,0,75.41,41.4L41.174,56.165c-.373.149-.671.224-1.044.373s-.671.149-1.044.3a5.036,5.036,0,0,1-1.044.149A4.925,4.925,0,0,1,37,57.06a11.017,11.017,0,0,1-1.566-.075c-.522-.075-1.044-.149-1.492-.224a11.329,11.329,0,0,1-1.492-.448,7.324,7.324,0,0,1-1.343-.6c-.224-.149-.448-.224-.671-.373a3.5,3.5,0,0,1-.671-.448c-.149-.149-.448-.3-.6-.448s-.373-.3-.522-.448l-.522-.522a2.787,2.787,0,0,1-.448-.522c-.149-.149-.3-.448-.448-.6a5.234,5.234,0,0,1-.448-.671l-.448-.9c-.149-.3-.224-.6-.373-.9a3.934,3.934,0,0,1-.224-.9,3.744,3.744,0,0,1-.149-.9,4.056,4.056,0,0,1,0-1.343l.224-1.343a8.58,8.58,0,0,1,.448-1.268c.224-.448.448-.746.671-1.193.149-.149.224-.373.448-.522.149-.149.3-.373.448-.522s.3-.373.448-.448c.149-.149.373-.3.522-.448s.373-.3.522-.448.448-.3.6-.448c.224-.149.448-.224.671-.373a2.234,2.234,0,0,1,.746-.3L70.711,22.973a24.68,24.68,0,0,1,3.058-1.044c1.044-.3,2.014-.6,3.133-.82a22.877,22.877,0,0,1,3.133-.522c1.044-.149,2.089-.149,3.133-.224a32.986,32.986,0,0,1,4.7.149,34.186,34.186,0,0,1,4.7.746,46.884,46.884,0,0,1,4.625,1.268,43.955,43.955,0,0,1,4.326,1.79c.746.373,1.343.746,2.089,1.044.671.448,1.343.746,2.014,1.268.671.448,1.343.9,1.939,1.343a17.25,17.25,0,0,1,1.79,1.492,17.834,17.834,0,0,1,1.716,1.641c.522.522,1.044,1.119,1.641,1.716a18.153,18.153,0,0,1,1.492,1.865c.448.671.97,1.343,1.343,1.939.6.9,1.044,1.79,1.566,2.76a22.032,22.032,0,0,1,1.193,2.76,20.726,20.726,0,0,1,.9,2.834c.224.97.448,1.865.6,2.834a27.17,27.17,0,0,1,.3,4.252,19.883,19.883,0,0,1-.448,4.177,24.567,24.567,0,0,1-1.044,4.028,17.73,17.73,0,0,1-1.79,3.8c-.373.6-.746,1.268-1.119,1.79a15.128,15.128,0,0,1-1.343,1.716c-.448.522-.97,1.119-1.417,1.641a16.652,16.652,0,0,1-1.641,1.566,15.737,15.737,0,0,1-1.716,1.417c-.6.448-1.268.9-1.939,1.343a18.972,18.972,0,0,1-2.089,1.193,20.519,20.519,0,0,1-2.238,1.044L47.439,100.994l21.706,32.745a13.652,13.652,0,0,0,3.729,3.73,15.625,15.625,0,0,0,4.7,2.089,14.892,14.892,0,0,0,5.147.373,12.706,12.706,0,0,0,4.923-1.566,12.834,12.834,0,0,0,3.73-3.133,10.257,10.257,0,0,0,2.014-4.028,11.273,11.273,0,0,0,.224-4.475,11.662,11.662,0,0,0-1.641-4.475c-.075-.075-.075-.149-.149-.149-.075-.075-.075-.149-.149-.149a.16.16,0,0,0-.149-.149c-.075-.075-.075-.149-.149-.149l-6.937-10.293L116.36,97.19c1.79-.82,3.431-1.716,5.147-2.685a50.237,50.237,0,0,0,4.625-3.133c1.492-1.119,2.834-2.238,4.177-3.431a42.9,42.9,0,0,0,3.655-3.729,59.043,59.043,0,0,0,4.55-6.116,39.608,39.608,0,0,0,3.357-6.638,58.886,58.886,0,0,0,2.238-7.011,58.279,58.279,0,0,0,1.044-7.235c.075-1.193.075-2.461.075-3.729-.075-1.268-.149-2.461-.224-3.729-.149-1.268-.373-2.461-.522-3.729a33.827,33.827,0,0,0-.9-3.729c-.373-1.193-.746-2.461-1.193-3.655s-.97-2.461-1.492-3.655-1.119-2.387-1.79-3.58a34.34,34.34,0,0,1-2.387-3.357" transform="translate(0 0)" fill="#7b252c"/>
    </g>
  </g>
</svg>
