<svg id="Group_32" data-name="Group 32" xmlns="http://www.w3.org/2000/svg" xmlns:xlink="http://www.w3.org/1999/xlink" width="139.982" height="140" viewBox="0 0 139.982 140">
  <defs>
    <clipPath id="clip-path">
      <rect id="Rectangle_28" data-name="Rectangle 28" width="139.982" height="140" fill="#7b252c"/>
    </clipPath>
  </defs>
  <g id="Group_31" data-name="Group 31" clip-path="url(#clip-path)">
    <path id="Path_26" data-name="Path 26" d="M121.938,11.142A120.465,120.465,0,0,1,187.27,44.71a1.243,1.243,0,0,0,2.121-.905,118.487,118.487,0,0,0-6.2-35.75,5.575,5.575,0,0,0-3.777-3.87A68.41,68.41,0,0,0,154.748,0,67.141,67.141,0,0,0,121.537,8.83a1.243,1.243,0,0,0,.4,2.312" transform="translate(-85.58 0.001)" fill="#7b252c"/>
    <path id="Path_27" data-name="Path 27" d="M359.9,108.457a1.243,1.243,0,0,0,1.844,1.384A118.5,118.5,0,0,0,389.6,86.593a5.575,5.575,0,0,0,1.464-5.206,68.4,68.4,0,0,0-8.711-23.448A67.141,67.141,0,0,0,358.1,33.591a1.243,1.243,0,0,0-1.8,1.5,120.465,120.465,0,0,1,3.6,73.364" transform="translate(-252.156 -23.649)" fill="#7b252c"/>
    <path id="Path_28" data-name="Path 28" d="M319.807,239.545a120.463,120.463,0,0,1-61.737,39.8,1.243,1.243,0,0,0-.276,2.289,118.491,118.491,0,0,0,34.062,12.5,5.575,5.575,0,0,0,5.24-1.336,68.416,68.416,0,0,0,15.951-19.268,67.138,67.138,0,0,0,8.962-33.174,1.243,1.243,0,0,0-2.2-.809" transform="translate(-182.028 -169.244)" fill="#7b252c"/>
    <path id="Path_29" data-name="Path 29" d="M191.269,358.866A120.461,120.461,0,0,1,125.937,325.3a1.243,1.243,0,0,0-2.121.905,118.5,118.5,0,0,0,6.2,35.751,5.575,5.575,0,0,0,3.777,3.87A68.409,68.409,0,0,0,158.459,370a67.137,67.137,0,0,0,33.211-8.825,1.243,1.243,0,0,0-.4-2.312" transform="translate(-87.645 -230.009)" fill="#7b252c"/>
    <path id="Path_30" data-name="Path 30" d="M34.526,185.13a1.243,1.243,0,0,0-1.844-1.384A118.491,118.491,0,0,0,4.822,206.994,5.575,5.575,0,0,0,3.359,212.2a68.42,68.42,0,0,0,8.711,23.449A67.14,67.14,0,0,0,36.319,260a1.243,1.243,0,0,0,1.8-1.5,120.467,120.467,0,0,1-3.6-73.364" transform="translate(-2.285 -129.938)" fill="#7b252c"/>
    <path id="Path_31" data-name="Path 31" d="M2.2,105.912a120.463,120.463,0,0,1,61.737-39.8,1.243,1.243,0,0,0,.276-2.289,118.492,118.492,0,0,0-34.062-12.5,5.575,5.575,0,0,0-5.24,1.336A68.417,68.417,0,0,0,8.963,71.928,67.139,67.139,0,0,0,0,105.1a1.243,1.243,0,0,0,2.2.809" transform="translate(0 -36.214)" fill="#7b252c"/>
    <path id="Path_32" data-name="Path 32" d="M171.82,129.543a5.576,5.576,0,0,0-4.714-.972,117.465,117.465,0,0,0-26.907,8.922,5.578,5.578,0,0,0-3.2,3.6,117.455,117.455,0,0,0-5.726,27.763,5.576,5.576,0,0,0,1.515,4.569,117.46,117.46,0,0,0,21.18,18.841,5.577,5.577,0,0,0,4.714.972,117.467,117.467,0,0,0,26.907-8.922,5.576,5.576,0,0,0,3.2-3.6,117.45,117.45,0,0,0,5.726-27.762A5.576,5.576,0,0,0,193,148.384a117.452,117.452,0,0,0-21.18-18.841" transform="translate(-92.903 -90.903)" fill="#7b252c"/>
  </g>
</svg>
