<svg id="Group_2" data-name="Group 2" xmlns="http://www.w3.org/2000/svg" xmlns:xlink="http://www.w3.org/1999/xlink" width="603.896" height="236.9" viewBox="0 0 603.896 236.9">
  <defs>
    <clipPath id="clip-path">
      <rect id="Rectangle_1" data-name="Rectangle 1" width="603.896" height="236.9" fill="none"/>
    </clipPath>
  </defs>
  <g id="Group_1" data-name="Group 1" clip-path="url(#clip-path)">
    <path id="Path_1" data-name="Path 1" d="M0,107.4V2.4H22.8L61.05,64.65,44.7,64.5,83.4,2.4h21.9v105H80.55V74.7q0-13.5.675-24.3T83.55,28.95l2.85,7.8L57.3,81.9H47.4L18.9,37.05l2.85-8.1Q23.4,39,24.075,49.575T24.75,74.7v32.7Z" fill="#fff"/>
    <path id="Path_2" data-name="Path 2" d="M129.6,107.4V85.95h17.7V23.85H129.6V2.4h61.05V23.85H172.8v62.1h17.85V107.4Z" fill="#fff"/>
    <path id="Path_3" data-name="Path 3" d="M214.947,107.4V2.4h25.5V84.9h46.8v22.5Z" fill="#fff"/>
    <path id="Path_4" data-name="Path 4" d="M316.5,107.4V24.9H285.3V2.4h88.65V24.9H342v82.5Z" fill="#fff"/>
    <path id="Path_5" data-name="Path 5" d="M435.3,108.9a57.305,57.305,0,0,1-21.9-4.05A51.682,51.682,0,0,1,384.746,76.2,56.908,56.908,0,0,1,380.7,54.45a56.915,56.915,0,0,1,4.049-21.75A51.682,51.682,0,0,1,413.4,4.05a60.428,60.428,0,0,1,43.5,0,51.949,51.949,0,0,1,17.25,11.4A51.035,51.035,0,0,1,485.471,32.7a57.862,57.862,0,0,1,3.976,21.75,58.02,58.02,0,0,1-3.976,21.675A50.824,50.824,0,0,1,474.147,93.45a51.919,51.919,0,0,1-17.25,11.4,56.516,56.516,0,0,1-21.6,4.05m-.149-24a28.092,28.092,0,0,0,11.324-2.25,26.587,26.587,0,0,0,9-6.375A29.315,29.315,0,0,0,461.4,66.6a34.079,34.079,0,0,0,2.1-12.15,34.1,34.1,0,0,0-2.1-12.15,29.355,29.355,0,0,0-5.926-9.675,26.628,26.628,0,0,0-9-6.375,29.624,29.624,0,0,0-22.649,0,27.407,27.407,0,0,0-9.076,6.375,27.75,27.75,0,0,0-5.924,9.675A35.182,35.182,0,0,0,406.8,54.45a35.811,35.811,0,0,0,2.026,12.225,26.842,26.842,0,0,0,5.924,9.675,27.7,27.7,0,0,0,20.4,8.55" fill="#fff"/>
    <path id="Path_6" data-name="Path 6" d="M509.246,107.4V2.4h22.8l55.05,75-4.951-.75q-.752-4.95-1.2-9.45t-.824-8.85q-.376-4.348-.6-8.85t-.3-9.75q-.078-5.249-.076-11.4V2.4H603.9v105H580.8L523.346,30,531,31.05q.749,7.2,1.274,12.225t.9,8.925q.372,3.9.524,7.05t.226,6.225q.073,3.077.075,6.825v35.1Z" fill="#fff"/>
    <path id="Path_7" data-name="Path 7" d="M59.15,236.9a61.306,61.306,0,0,1-22.8-4.05,51.169,51.169,0,0,1-17.55-11.4A49.835,49.835,0,0,1,7.55,204.125a58.965,58.965,0,0,1-3.9-21.675,55.019,55.019,0,0,1,4.125-21.525A50.9,50.9,0,0,1,19.55,143.75a53.974,53.974,0,0,1,18.075-11.4A62.22,62.22,0,0,1,60.35,128.3a58.485,58.485,0,0,1,16.425,2.25A56.574,56.574,0,0,1,90.8,136.7a45.02,45.02,0,0,1,10.65,9L86,162.05a44.32,44.32,0,0,0-7.725-6,39.437,39.437,0,0,0-8.475-3.825,31.661,31.661,0,0,0-9.6-1.425,29.673,29.673,0,0,0-28.05,19.125A34.208,34.208,0,0,0,29.9,182.45a32.853,32.853,0,0,0,2.4,12.6A30.972,30.972,0,0,0,61.25,214.4a25.47,25.47,0,0,0,8.775-1.5,23.006,23.006,0,0,0,7.125-4.05,19.572,19.572,0,0,0,4.8-6.075,16.417,16.417,0,0,0,1.8-7.575v-3.9l3.3,5.1H58.1V176.45h49.35a37.916,37.916,0,0,1,.45,4.5q.147,2.852.225,5.55t.075,4.05a46.454,46.454,0,0,1-3.675,18.675A43.311,43.311,0,0,1,94.25,223.85a47.561,47.561,0,0,1-15.6,9.6,54.033,54.033,0,0,1-19.5,3.45" fill="#fff"/>
    <path id="Path_8" data-name="Path 8" d="M127.7,235.4v-105h25.5v82.5H200v22.5Z" fill="#fff"/>
    <path id="Path_9" data-name="Path 9" d="M205.7,235.4l41.55-105h21.6l41.25,105H284.3l-19.8-53.25q-1.2-3.15-2.4-6.75t-2.4-7.425q-1.2-3.825-2.325-7.5T255.5,153.65l4.5-.151q-.9,3.752-2.025,7.351t-2.25,7.125q-1.125,3.525-2.475,7.05T250.7,182.3l-19.8,53.1Zm19.8-20.1,7.95-19.2h48.3l7.8,19.2Z" fill="#fff"/>
    <path id="Path_10" data-name="Path 10" d="M357.946,236.9a65.457,65.457,0,0,1-18.675-2.475,47.806,47.806,0,0,1-14.775-7.2,59.437,59.437,0,0,1-11.55-11.175L328.4,198.5q7.5,10.052,15.074,13.5a37.409,37.409,0,0,0,15.676,3.45,24.145,24.145,0,0,0,7.35-1.05,11.158,11.158,0,0,0,5.1-3.075,7.282,7.282,0,0,0,1.8-5.025,7.484,7.484,0,0,0-1.125-4.05,10.84,10.84,0,0,0-3.075-3.15,25.244,25.244,0,0,0-4.65-2.475,47.862,47.862,0,0,0-5.7-1.95q-3-.822-6.149-1.425a81.74,81.74,0,0,1-15.15-4.8,36.457,36.457,0,0,1-10.725-6.975,26.523,26.523,0,0,1-6.375-9.45,32.234,32.234,0,0,1-2.1-11.925,26.7,26.7,0,0,1,3.226-12.975,32.6,32.6,0,0,1,8.7-10.2,40.746,40.746,0,0,1,12.675-6.6,48.534,48.534,0,0,1,15-2.325,63.776,63.776,0,0,1,17.774,2.175,38.9,38.9,0,0,1,12.75,6.225,39.3,39.3,0,0,1,9.076,9.75L381.8,161.3a33.057,33.057,0,0,0-6.826-6.45,30.048,30.048,0,0,0-7.8-3.9,27.087,27.087,0,0,0-8.475-1.35,23.547,23.547,0,0,0-7.726,1.125,11.712,11.712,0,0,0-5.024,3.15,7.086,7.086,0,0,0-1.8,4.875,6.563,6.563,0,0,0,1.5,4.35,14.146,14.146,0,0,0,4.05,3.225,28.344,28.344,0,0,0,5.85,2.4,57.112,57.112,0,0,0,6.9,1.575,83.7,83.7,0,0,1,14.925,4.35,45.993,45.993,0,0,1,11.55,6.6,27.09,27.09,0,0,1,7.5,9.225,27.679,27.679,0,0,1,2.625,12.375q0,10.951-5.326,18.525a33.525,33.525,0,0,1-14.549,11.55,53.237,53.237,0,0,1-21.225,3.975" fill="#fff"/>
    <path id="Path_11" data-name="Path 11" d="M418.244,235.4v-105h73.2v21.75h-48.45v61.5h49.95V235.4Zm12-63.75h54.45v20.7h-54.45Z" fill="#fff"/>
    <path id="Path_12" data-name="Path 12" d="M514.992,235.4v-105h47.25a38.2,38.2,0,0,1,18.224,4.35,32.831,32.831,0,0,1,12.826,11.925,32.188,32.188,0,0,1,4.65,17.175,34.313,34.313,0,0,1-4.65,17.775A33.327,33.327,0,0,1,580.542,194a37.041,37.041,0,0,1-18.3,4.5h-22.95v36.9Zm24.3-56.4h20.7a13.188,13.188,0,0,0,6.825-1.725,11.469,11.469,0,0,0,4.5-4.875,15.887,15.887,0,0,0,1.575-7.2,13.836,13.836,0,0,0-1.8-7.125,11.89,11.89,0,0,0-5.174-4.725,18.491,18.491,0,0,0-8.175-1.65h-18.45Zm33.9,56.4-26.7-47.4,26.1-3.75,29.7,51.15Z" fill="#fff"/>
  </g>
</svg>
