<svg id="Group_6" data-name="Group 6" xmlns="http://www.w3.org/2000/svg" xmlns:xlink="http://www.w3.org/1999/xlink" width="1104.795" height="183.102" viewBox="0 0 1104.795 183.102">
  <defs>
    <clipPath id="clip-path">
      <rect id="Rectangle_10" data-name="Rectangle 10" width="1104.795" height="183.102" fill="none"/>
    </clipPath>
  </defs>
  <g id="Group_5" data-name="Group 5" clip-path="url(#clip-path)">
    <path id="Path_5" data-name="Path 5" d="M85.152,118.018V52h29.709a24.522,24.522,0,0,1,12.072,2.924,21.657,21.657,0,0,1,8.3,8.017,22.512,22.512,0,0,1,3.018,11.695,24.62,24.62,0,0,1-3.018,12.261,22.075,22.075,0,0,1-8.3,8.441A23.606,23.606,0,0,1,114.861,98.4h-9.338v19.617Zm19.994-36.971h5.942a7.072,7.072,0,0,0,3.206-.707,5.318,5.318,0,0,0,2.217-2.028,6.276,6.276,0,0,0,.8-3.3,5.784,5.784,0,0,0-.8-3.207,4.929,4.929,0,0,0-2.217-1.839,8,8,0,0,0-3.206-.613h-5.942Z" transform="translate(-44.997 -27.477)" fill="#fff"/>
    <path id="Path_6" data-name="Path 6" d="M326.658,0,321,12.921l23.107,7.639,4.055-9.62Zm16.034,24.522v39.8a9.543,9.543,0,0,1-1.226,4.857,9.1,9.1,0,0,1-3.3,3.348,9.284,9.284,0,0,1-4.81,1.226,8.684,8.684,0,0,1-4.574-1.226,8.5,8.5,0,0,1-3.16-3.348,10.159,10.159,0,0,1-1.132-4.857v-39.8H303.928v40.65A24.171,24.171,0,0,0,307.7,78.564a26,26,0,0,0,10.422,9.2,33.44,33.44,0,0,0,15.232,3.348,38.107,38.107,0,0,0,6.687-.561l-6.215-6.569L344.2,76.527l6.036,10.337a25.593,25.593,0,0,0,8.771-8.3,24.171,24.171,0,0,0,3.773-13.393V24.522Z" transform="translate(-160.604)" fill="#fff"/>
    <path id="Path_7" data-name="Path 7" d="M340.725,184.2c-.533.311-1.085.608-1.651.9a30.6,30.6,0,0,1-8.545,2.787l7.177,7.578,6.791-4.81Zm-14.43,8.526h-9.62L303,202.535l5.093,6.508,13.393-5.546,13.393,5.546,5.093-6.508ZM354.447,232.2a31.778,31.778,0,0,0-7.4-10.893,34.2,34.2,0,0,0-11.271-7.168,41.228,41.228,0,0,0-28.53,0,34.072,34.072,0,0,0-11.318,7.168,31.843,31.843,0,0,0-7.4,10.893,37.975,37.975,0,0,0,0,27.587,31.631,31.631,0,0,0,7.4,10.94,34,34,0,0,0,11.318,7.168,39.016,39.016,0,0,0,14.336,2.546,38.383,38.383,0,0,0,14.194-2.546,34.125,34.125,0,0,0,11.271-7.168,31.567,31.567,0,0,0,7.4-10.94,36.13,36.13,0,0,0,2.594-13.864,35.546,35.546,0,0,0-2.594-13.723m-19.24,20.042a14.653,14.653,0,0,1-3.112,4.951,13.956,13.956,0,0,1-4.716,3.254,15.917,15.917,0,0,1-11.789,0,13.956,13.956,0,0,1-4.716-3.254,14.652,14.652,0,0,1-3.112-4.951,18.4,18.4,0,0,1,0-12.45,14.653,14.653,0,0,1,3.112-4.951,13.956,13.956,0,0,1,4.716-3.254,15.917,15.917,0,0,1,11.789,0,13.957,13.957,0,0,1,4.716,3.254,14.654,14.654,0,0,1,3.112,4.951,18.406,18.406,0,0,1,0,12.45" transform="translate(-151.092 -97.336)" fill="#fff"/>
    <path id="Path_8" data-name="Path 8" d="M103.53,52V129.95H24.467V52H0V210.579H24.467V153.51H103.53v57.07H128V52Z" transform="translate(0 -27.477)" fill="#fff"/>
    <path id="Path_9" data-name="Path 9" d="M719.769,138.045q-.115-2.1-.332-4.429t-.665-4.762H650.113v23.7h44.075v1.329a26.651,26.651,0,0,1-3.322,12.957,34.526,34.526,0,0,1-9.3,10.741,45.015,45.015,0,0,1-13.732,7.2,52.138,52.138,0,0,1-16.389,2.547,54.581,54.581,0,0,1-21.816-4.43,58.518,58.518,0,0,1-18.161-12.181,56.308,56.308,0,0,1-12.292-18.051,54.589,54.589,0,0,1-4.429-21.816,56.619,56.619,0,0,1,4.208-22.038A53.263,53.263,0,0,1,610.8,91.2a55.438,55.438,0,0,1,17.718-11.738,56.668,56.668,0,0,1,22.037-4.208,50.259,50.259,0,0,1,14.617,2.215,63.141,63.141,0,0,1,14.286,6.423A76.834,76.834,0,0,1,693.08,94.524l15.5-16.168a57.921,57.921,0,0,0-14.839-13.732,75.94,75.94,0,0,0-20.266-9.3A80.093,80.093,0,0,0,650.556,52a82.257,82.257,0,0,0-31.451,5.98,78.8,78.8,0,0,0-25.445,16.592V52H569.194v52.1q0,9.972.226,19.256t.567,17.784q.338,8.5.9,16.085t1.247,14.272c.135,1.333.279,2.632.427,3.9L480.389,52H458.414V210.58h24.467V144.655q0-2.039-.114-4.757t-.34-6.91q-.228-4.189-.793-10.874t-1.36-16.311q-.579-7-1.335-16.234L571.233,210.58h22.428V187.57a80.687,80.687,0,0,0,57.117,23.01,72.671,72.671,0,0,0,27.131-4.983,66.877,66.877,0,0,0,21.927-14.064,64.874,64.874,0,0,0,14.728-21.594,70.394,70.394,0,0,0,5.315-27.8c0-1.329-.038-2.692-.11-4.1" transform="translate(-242.239 -27.478)" fill="#fff"/>
    <path id="Path_10" data-name="Path 10" d="M1192.392,210.944a74.711,74.711,0,0,1-29.952-5.924,72.714,72.714,0,0,1-23.917-16.567,75.039,75.039,0,0,1-15.8-25.015,86.065,86.065,0,0,1-5.6-31.488,86.075,86.075,0,0,1,5.6-31.487,75.112,75.112,0,0,1,15.8-25.015,72.761,72.761,0,0,1,23.917-16.566,78.67,78.67,0,0,1,59.9,0,72.026,72.026,0,0,1,23.917,16.676,76.327,76.327,0,0,1,15.8,25.124,85.474,85.474,0,0,1,5.6,31.268,85.449,85.449,0,0,1-5.6,31.269,76.252,76.252,0,0,1-15.8,25.124,71.98,71.98,0,0,1-23.917,16.677,74.732,74.732,0,0,1-29.952,5.924m0-23.04a49.687,49.687,0,0,0,20.517-4.17A47.5,47.5,0,0,0,1229.037,172a55.622,55.622,0,0,0,10.642-17.773,66.515,66.515,0,0,0,0-44.544,55.64,55.64,0,0,0-10.642-17.774,47.553,47.553,0,0,0-16.128-11.739,50.181,50.181,0,0,0-57.27,11.629A51.839,51.839,0,0,0,1145,109.459a65.018,65.018,0,0,0-3.73,22.491,65.263,65.263,0,0,0,3.73,22.382,51.587,51.587,0,0,0,10.642,17.774,48.944,48.944,0,0,0,36.753,15.8m75.263,23.04h-75.263V187.9h75.263Z" transform="translate(-590.322 -27.984)" fill="#fff"/>
    <path id="Path_11" data-name="Path 11" d="M1528.81,212.278q-17.774,0-31.818-7.789a57.127,57.127,0,0,1-22.052-21.5,60.381,60.381,0,0,1-8.009-31.049V57.144h23.7v92.818a38.617,38.617,0,0,0,5.267,20.077,40.333,40.333,0,0,0,13.933,14.153,35.857,35.857,0,0,0,18.981,5.267,38.212,38.212,0,0,0,19.857-5.267,39.753,39.753,0,0,0,14.153-14.153,38.625,38.625,0,0,0,5.266-20.077V57.144h22.6v94.792a60.421,60.421,0,0,1-8.009,31.049,57.17,57.17,0,0,1-22.052,21.5q-14.045,7.791-31.816,7.789" transform="translate(-775.168 -30.196)" fill="#fff"/>
    <path id="Path_12" data-name="Path 12" d="M1843.994,99.261q2.084-6.368,3.954-12.079c.212-.649.417-1.273.618-1.884.05.151.1.3.15.457q1.976,6.043,4.392,13.287c.25.753.5,1.491.737,2.223h23.772l-16.383-42.632h-24.158l-16.5,42.632h22.76c.22-.665.439-1.325.662-2" transform="translate(-962.041 -30.982)" fill="#fff"/>
    <path id="Path_13" data-name="Path 13" d="M1846.858,268.77h25.255l-39.732-103.394h-62.99L1729.363,268.77h24.157l9-23.648h75.377ZM1771.2,222.3l12.973-34.106h32.139L1829.24,222.3Z" transform="translate(-913.844 -87.389)" fill="#fff"/>
    <path id="Path_14" data-name="Path 14" d="M2065.006,211.209V57.61h21.284L2180.2,183.341l-3.511,1.974q-.879-5.482-1.536-11.959t-1.206-13.824q-.55-7.349-.878-15.579t-.549-17.225q-.221-8.995-.219-18.651V57.61H2196v153.6H2174.28L2081.9,90.085l2.413-3.072q1.1,13.387,1.865,22.71t1.317,15.8q.545,6.475.768,10.533t.33,6.693q.106,2.633.108,4.608v63.853Z" transform="translate(-1091.207 -30.443)" fill="#fff"/>
  </g>
</svg>
