<svg id="Group_44" data-name="Group 44" xmlns="http://www.w3.org/2000/svg" xmlns:xlink="http://www.w3.org/1999/xlink" width="600" height="94" viewBox="0 0 600 94">
  <defs>
    <clipPath id="clip-path">
      <rect id="Rectangle_35" data-name="Rectangle 35" width="600" height="94" fill="none"/>
    </clipPath>
  </defs>
  <g id="Group_43" data-name="Group 43" clip-path="url(#clip-path)">
    <path id="Path_55" data-name="Path 55" d="M0,94V0H28.2a19.2,19.2,0,0,1,10.24,2.821,21.083,21.083,0,0,1,7.371,7.668,21.347,21.347,0,0,1,2.771,10.783A21.346,21.346,0,0,1,45.81,32.057a21.883,21.883,0,0,1-7.371,7.768A18.717,18.717,0,0,1,28.2,42.743H10.686V94ZM10.686,32.453H28a8.22,8.22,0,0,0,4.848-1.532,11.39,11.39,0,0,0,3.513-4.057A11.766,11.766,0,0,0,37.7,21.272a11.481,11.481,0,0,0-1.335-5.54,11.078,11.078,0,0,0-3.513-3.958A8.418,8.418,0,0,0,28,10.29H10.686Z" fill="#ffeede"/>
    <path id="Path_56" data-name="Path 56" d="M16.682,48.449H27.368V94H16.682Zm4.65,17.73H42.593v10.29H21.332Zm16.512-17.73H48.53V94H37.844Z" fill="#ffeede"/>
    <path id="Path_57" data-name="Path 57" d="M82,94a29.07,29.07,0,0,1-14.347-3.513,25.759,25.759,0,0,1-9.943-9.7,27.228,27.228,0,0,1-3.612-14V0H64.779V65.9a17.426,17.426,0,0,0,2.374,9.053,18.189,18.189,0,0,0,6.284,6.382A16.168,16.168,0,0,0,82,83.709a17.232,17.232,0,0,0,8.954-2.374,17.92,17.92,0,0,0,6.382-6.382A17.418,17.418,0,0,0,99.706,65.9V0H109.9V66.79a27.238,27.238,0,0,1-3.612,14,25.772,25.772,0,0,1-9.943,9.7A29.073,29.073,0,0,1,82,94m7.52-77.675L69.528,8.9,74.376,0,92.483,11.18Z" fill="#ffeede"/>
    <path id="Path_58" data-name="Path 58" d="M440.31,94a29.069,29.069,0,0,1-14.347-3.512,25.764,25.764,0,0,1-9.944-9.7,27.227,27.227,0,0,1-3.611-14V0h10.686V65.9a17.417,17.417,0,0,0,2.374,9.053,18.187,18.187,0,0,0,6.283,6.382,16.17,16.17,0,0,0,8.559,2.375,17.235,17.235,0,0,0,8.954-2.375,17.92,17.92,0,0,0,6.382-6.382,17.418,17.418,0,0,0,2.375-9.053V0h10.19V66.79a27.237,27.237,0,0,1-3.611,14,25.778,25.778,0,0,1-9.944,9.7A29.066,29.066,0,0,1,440.31,94" fill="#fff"/>
    <path id="Path_59" data-name="Path 59" d="M468.069,94l29.074-75.1h10.885L536.888,94H525.479L507.434,46.4q-.3-.69-1.138-3.364t-1.93-5.936q-1.089-3.266-1.979-5.986T501.2,27.6l2.275-.1q-.594,1.683-1.435,4.255T500.26,37.2q-.941,2.87-1.83,5.392t-1.484,4.2L478.992,94ZM482.2,70.942l3.958-10.289h31.464l4.552,10.289Zm8.015-57.486-3.661-3.463L498.826,0h7.223l12.269,9.993-3.661,3.463L501,7.025h2.869Z" fill="#fff"/>
    <path id="Path_60" data-name="Path 60" d="M160.547,71.155a22.84,22.84,0,1,1-4.131-13.106L148.064,63.9a12.659,12.659,0,1,0-.077,14.611H136.713V68.322h23.656a22.283,22.283,0,0,1,.178,2.833" fill="#ffeede"/>
    <path id="Path_61" data-name="Path 61" d="M160.547,0V42.744H150.358L125.047,15.092V42.744H114.858V0h10.189l25.311,27.646V0Z" fill="#ffeede"/>
    <path id="Path_62" data-name="Path 62" d="M294.635,71.155A22.84,22.84,0,1,1,290.5,58.049L282.152,63.9a12.659,12.659,0,1,0-.077,14.611H270.8V68.322h23.656a22.286,22.286,0,0,1,.178,2.833" fill="#ffeede"/>
    <path id="Path_63" data-name="Path 63" d="M294.635,0V42.744H284.446L259.135,15.092V42.744H248.946V0h10.189l25.311,27.646V0Z" fill="#ffeede"/>
    <path id="Path_64" data-name="Path 64" d="M600,0V94H589.325l-.012-.024L554.88,24.167V94H544.193V0h10.675l.012.024,34.433,69.79V0Z" fill="#fff"/>
    <path id="Path_65" data-name="Path 65" d="M232.48,29.586v17.29a27.378,27.378,0,0,1,10.686,9.657V0H232.48V19.3H193.065V0H182.379V94h10.686V29.586Z" fill="#ffeede"/>
    <path id="Path_66" data-name="Path 66" d="M220.258,48.31A22.845,22.845,0,1,0,243.1,71.155,22.845,22.845,0,0,0,220.258,48.31m0,35.5a12.654,12.654,0,1,1,12.654-12.654,12.669,12.669,0,0,1-12.654,12.654" fill="#ffeede"/>
    <path id="Path_67" data-name="Path 67" d="M201.745,51.114l-4.013-2.691L206.983,36.2,214,34.5l13.825,6.623-2.333,4.231-14.739-2.838,2.788-.677Z" fill="#ffeede"/>
    <path id="Path_68" data-name="Path 68" d="M225.622,16.877,211.164,8.066,217.964,0l11.387,12.1Z" fill="#ffeede"/>
    <path id="Path_69" data-name="Path 69" d="M407.668,47a47,47,0,1,0-47,47h47V83.809H389.875A46.9,46.9,0,0,0,407.668,47m-83.807,0a36.809,36.809,0,1,1,36.808,36.809A36.85,36.85,0,0,1,323.861,47" fill="#fff"/>
  </g>
</svg>
