<svg id="Group_24" data-name="Group 24" xmlns="http://www.w3.org/2000/svg" xmlns:xlink="http://www.w3.org/1999/xlink" width="130.108" height="100" viewBox="0 0 130.108 100">
  <defs>
    <clipPath id="clip-path">
      <rect id="Rectangle_24" data-name="Rectangle 24" width="130.108" height="100" fill="#7b252c"/>
    </clipPath>
  </defs>
  <g id="Group_23" data-name="Group 23" clip-path="url(#clip-path)">
    <path id="Path_20" data-name="Path 20" d="M30.213,0c7.742,0,14.163.944,19.45,2.927,8.879,3.33,16.181,9.466,19.545,18.506A36.138,36.138,0,0,1,71.38,33.707c0,13.921-7.345,26.638-20.867,31.63-6.42,2.36-13.5,3.21-21.244,3.21-2.266,0-3.777,0-4.721-.094s-2.266-.094-4.06-.094V98.667a1.175,1.175,0,0,1-1.039,1.322H1.133C.378,99.989,0,99.612,0,98.762V1.6C0,.944.283.566.944.566c1.605,0,3.116,0,5.288-.094ZM20.582,18.789V50.514c1.322.094,2.549.189,3.682.189h5A35.267,35.267,0,0,0,40.127,49,14.817,14.817,0,0,0,50.8,34.274c0-5.892-3.114-11.636-8.78-13.785A27.709,27.709,0,0,0,30.874,18.6c-2.455,0-4.626,0-6.42.094A21.609,21.609,0,0,0,20.582,18.789Z" transform="translate(0)" fill="#7b252c"/>
    <path id="Path_21" data-name="Path 21" d="M189.934,52.789h16.523A2.126,2.126,0,0,1,208.44,54.3a9.582,9.582,0,0,1,.567,2.36c.189.944.378,1.983.472,2.927.094,1.039.189,2.171.189,3.4a35.139,35.139,0,0,1,10.1-8.12,29.263,29.263,0,0,1,14.352-3.682,1.175,1.175,0,0,1,1.322,1.039V71.011c0,.756-.472,1.039-1.511,1.039a41.077,41.077,0,0,0-10.2.944,38.852,38.852,0,0,0-7.931,2.549,14.687,14.687,0,0,0-4.815,3.493v48.154c0,.944-.378,1.322-1.227,1.322h-18.6a1.306,1.306,0,0,1-1.511-1.133V74.693c0-2.266,0-4.627-.094-7.081s-.094-4.91-.189-7.364c0-2.172-.189-4.249-.378-6.421a.87.87,0,0,1,.661-1.039c0-.094.188-.094.283,0" transform="translate(-105.336 -28.523)" fill="#7b252c"/>
  </g>
</svg>
