<svg id="Group_21" data-name="Group 21" xmlns="http://www.w3.org/2000/svg" xmlns:xlink="http://www.w3.org/1999/xlink" width="133.711" height="100" viewBox="0 0 133.711 100">
  <defs>
    <clipPath id="clip-path">
      <rect id="Rectangle_22" data-name="Rectangle 22" width="133.711" height="100" fill="#7b252c"/>
    </clipPath>
  </defs>
  <g id="Group_20" data-name="Group 20" clip-path="url(#clip-path)">
    <path id="Path_15" data-name="Path 15" d="M0,96.852V1.575C0,.926.278.556.925.556c1.575,0,3.056,0,5.186-.092C8.333.371,10.648.371,13.148.278S18.333.186,21.2.093,26.851,0,29.629,0C37.222,0,43.518.926,48.7,2.87a33.067,33.067,0,0,1,12.408,7.593,29.473,29.473,0,0,1,6.759,10.555A35.44,35.44,0,0,1,70,33.055Q70,45,64.444,52.778a31.721,31.721,0,0,1-14.908,11.3C43.24,66.389,36.3,67.222,28.7,67.222c-2.222,0-3.7,0-4.63-.093s-2.222-.093-3.981-.093V96.759a1.152,1.152,0,0,1-1.019,1.3H1.111C.37,98.055,0,97.685,0,96.852ZM20.185,18.426V49.537c1.3.093,2.5.185,3.611.185H28.7c6.394,0,13.778-1.5,18.241-6.574,3.841-4.365,3.851-13.02.741-17.778-3.693-5.648-11.077-7.284-17.407-7.13-2.408,0-4.537,0-6.3.092A21.145,21.145,0,0,0,20.185,18.426Z" fill="#7b252c"/>
    <path id="Path_16" data-name="Path 16" d="M203.2,65.566a32.771,32.771,0,0,0-8.889-3.148,48.809,48.809,0,0,0-10.37-1.2,18.658,18.658,0,0,0-5.556.648,4.752,4.752,0,0,0-2.87,1.852,4.9,4.9,0,0,0-.741,2.5,4.119,4.119,0,0,0,.926,2.407,10.448,10.448,0,0,0,3.148,2.5c2.13,1.111,4.352,2.13,6.574,3.056a67.064,67.064,0,0,1,14.259,6.759,21.535,21.535,0,0,1,7.314,7.685,20,20,0,0,1,2.13,9.537,21.546,21.546,0,0,1-3.611,12.314,23.2,23.2,0,0,1-10.37,8.241,42.424,42.424,0,0,1-16.759,2.963,63.781,63.781,0,0,1-12.592-1.2,37.343,37.343,0,0,1-9.444-2.963,1.822,1.822,0,0,1-1.019-1.759V99.64a1,1,0,0,1,.37-.833.7.7,0,0,1,.833.093,39.634,39.634,0,0,0,11.481,4.537,43.126,43.126,0,0,0,10.925,1.389c3.519,0,6.019-.463,7.686-1.3a4.3,4.3,0,0,0,2.5-3.889c0-1.3-.741-2.5-2.222-3.7s-4.537-2.593-9.075-4.352a56.637,56.637,0,0,1-13.148-6.667,23.973,23.973,0,0,1-7.037-7.87,19.869,19.869,0,0,1-2.13-9.444,21.782,21.782,0,0,1,3.148-11.2,22.827,22.827,0,0,1,9.722-8.518c4.352-2.222,9.815-3.241,16.389-3.241a79.812,79.812,0,0,1,11.481.833,32.557,32.557,0,0,1,7.963,2.13,1.623,1.623,0,0,1,.926.833,4.643,4.643,0,0,1,.185,1.111V64.64a1.139,1.139,0,0,1-.463.926A2.466,2.466,0,0,1,203.2,65.566Z" transform="translate(-75.422 -21.677)" fill="#7b252c"/>
  </g>
</svg>
