<svg id="Group_30" data-name="Group 30" xmlns="http://www.w3.org/2000/svg" xmlns:xlink="http://www.w3.org/1999/xlink" width="129.478" height="140" viewBox="0 0 129.478 140">
  <defs>
    <clipPath id="clip-path">
      <rect id="Rectangle_27" data-name="Rectangle 27" width="129.478" height="140" fill="#7b252c"/>
    </clipPath>
  </defs>
  <g id="Group_29" data-name="Group 29" transform="translate(0 0)" clip-path="url(#clip-path)">
    <path id="Path_25" data-name="Path 25" d="M85.073,0h.461C98.3,9.944,129.478,35.053,129.478,35.053s-6.712,56.638-9.345,79.472C89.95,122.985,60.081,131.76,29.679,140,26.973,130.977,10,85.066,10,85.066S2.705,29.737,0,11.224C28.216,7.334,57.01,4.036,85.073,0M82.968,8.416c-24.473,3.342-49.15,6.478-73.857,9.579,1.535,4.08,3.327,7.9,4.914,11.926,15.194-2.347,31.229-4.416,46.752-6.785,2.281-.344,5.338-1.258,6.778-.929,1.338.307,3.809,3.239,5.14,4.68,5.3,5.7,9.6,10.536,14.96,15.194C97.8,40.069,108.3,38.424,118.5,36.472c-10.865-9.4-23.727-18.828-35.536-28.056M68.483,43.7c-16.422,2.435-33.7,6.04-50.722,8.65,1.433,4.643,3.217,8.935,4.906,13.322,9.388-1.44,18.155-3.5,27.346-5.148,2.683,3.868,4.563,8.533,7.473,12.16,9.674-2.179,19.552-4.131,29.218-6.31-5.345-7.341-12-15.4-18.221-22.674M55.395,91.157c-.7-1.3-2.559-6.946-3.97-6.544-7.158,2.018-16.634,3.678-24.78,5.608.972,4.409,3.2,9.579,4.68,14.258,9.469-1.908,18.2-4.548,27.573-6.551-.812-2.435-2.142-4.226-3.5-6.771" transform="translate(0 0)" fill="#7b252c"/>
  </g>
</svg>
